<svg xmlns="http://www.w3.org/2000/svg" width="741.75" height="581.227" viewBox="0 0 741.75 581.227">
  <g id="Group_41" data-name="Group 41" transform="translate(-5666.119 3538.324)">
    <path id="Path_608" data-name="Path 608" d="M834.693,764.75q-2.16,5.97-4.31,11.94c-.27.76-.55,1.51-.82,2.27q-5.49,15.21-10.99,30.43c-1.16.58-2.33,1.15-3.5,1.72-.97.47-1.95.94-2.92,1.4-.27.13-.53.26-.8.38-.81.38-1.62.76-2.43,1.13-.88.42-1.77.82-2.65,1.22-.99.45-1.97.89-2.96,1.33a13.283,13.283,0,0,1-.87-4.19,24.675,24.675,0,0,1,.79-6.68c.87-3.6,2.25-7.13,3.16-10.74.05-.17.09-.35.13-.52a39.353,39.353,0,0,0-2.66-25.69c-2.26-4.78-5.5-9.13-6.91-14.23a20.539,20.539,0,0,1,1.53-14.28,22.9,22.9,0,0,1,3.07-4.78c.29-.37.6-.72.92-1.07a20.241,20.241,0,0,1,11.14-6.25c8.21-1.46,16.79,2.91,21.38,9.77a19.6,19.6,0,0,1,3.33,9.27C838.823,753.19,836.743,759.08,834.693,764.75Z" transform="translate(5400.514 -3806)" fill="#e4e4e4"/>
    <path id="Path_633" data-name="Path 633" d="M581.261,267.831a11.2,11.2,0,0,1-10.179,3.068c-.932-.193-1.107,1.273-.181,1.465a12.555,12.555,0,0,0,11.268-3.369.763.763,0,0,0,.128-1.036.742.742,0,0,0-1.036-.128Z" transform="translate(5400.514 -3806)" fill="#fff"/>
    <path id="Path_634" data-name="Path 634" d="M289.761,427.018a27.215,27.215,0,0,1,27.215,27.215h0a27.218,27.218,0,0,1-22,26.71l0,44.512H277.6V427.018Z" transform="translate(5400.514 -3806)" fill="#3f3d56"/>
    <path id="Path_635" data-name="Path 635" d="M956.375,687.756v9.32q-5.925,7.575-12.21,14.85c-.45.53-.91,1.05-1.38,1.58-.71.83-1.44,1.65-2.17,2.47v-28.22Z" transform="translate(5400.514 -3806)" fill="#cacaca"/>
    <path id="Path_636" data-name="Path 636" d="M910.135,668.316A13.155,13.155,0,0,0,897,681.456v18.91a13.155,13.155,0,0,0,13.14,13.14h32.65c.47-.53.93-1.05,1.38-1.58q6.285-7.275,12.21-14.85c.26-.33.52-.66.77-.99,2.26-2.89,4.48-5.83,6.66-8.79,1.7-2.32,3.39-4.66,5.04-7.02.01-.01.02-.01.02-.02q4.14-5.88,8.07-11.94Z" transform="translate(5400.514 -3806)" fill="#3f3d56"/>
    <path id="Path_637" data-name="Path 637" d="M994.206,506.456a19,19,0,0,0-6.24-1.04H982.6a19.656,19.656,0,0,0-5.77.87,19.438,19.438,0,0,0-13.61,18.52v157.75c0,.59.03,1.17.08,1.74a18.409,18.409,0,0,0,.51,3c1.7-2.32,3.39-4.66,5.04-7.02.01-.01.02-.01.02-.02q4.14-5.88,8.07-11.94c1.41-2.17,2.81-4.36,4.18-6.56a398.43,398.43,0,0,0,26.24-49.56v-87.39A19.407,19.407,0,0,0,994.206,506.456Z" transform="translate(5400.514 -3806)" fill="#3f3d56"/>
    <path id="Path_638" data-name="Path 638" d="M332.346,687.756v18.83q-6.75-8.07-13.05-16.5c-.58-.77-1.15-1.55-1.72-2.33Z" transform="translate(5400.514 -3806)" fill="#cacaca"/>
    <path id="Path_639" data-name="Path 639" d="M362.826,668.316H304.1q2.775,4.275,5.65,8.45,3.81,5.565,7.83,10.99c.57.78,1.14,1.56,1.72,2.33q6.315,8.43,13.05,16.5c.84,1.02,1.69,2.03,2.55,3.04q1.65,1.95,3.35,3.88h24.58a13.147,13.147,0,0,0,13.13-13.14v-18.91a13.147,13.147,0,0,0-13.13-13.14Z" transform="translate(5400.514 -3806)" fill="#3f3d56"/>
    <path id="Path_640" data-name="Path 640" d="M299.316,507.606a19.509,19.509,0,0,0-8.96-2.19H285a19.18,19.18,0,0,0-7.39,1.47,19.411,19.411,0,0,0-12,17.92v67.77a398.873,398.873,0,0,0,38.49,75.74q2.775,4.275,5.65,8.45V524.806a19.421,19.421,0,0,0-10.43-17.2Z" transform="translate(5400.514 -3806)" fill="#3f3d56"/>
    <path id="Path_641" data-name="Path 641" d="M359.293,751.489l17.616-4.042L369.7,677.575l-26,5.966Z" transform="translate(5559 -3757)" fill="#9e616a"/>
    <path id="Path_642" data-name="Path 642" d="M533.805,739.866a20.481,20.481,0,0,1-.73-3.77,23.047,23.047,0,0,0-.88-4.45,23.359,23.359,0,0,0-1.85-3.8c-.35-.64-.72-1.28-1.05-1.93a15.969,15.969,0,0,1-.86-2.01c-10.31-30.45-24.7-71.83-34.68-96.05-5.87-14.25-41.97-18.99-76.03-20.2-4.15-.15-8.27-.25-12.3-.3-1.39-.02-2.77-.04-4.14-.05-3.5-.02-6.91-.02-10.19.02-.43,0-.86,0-1.29.01q-3.585.03-6.95.1c-15.42.3-26.75,1-28.77,1.13l-17.99-11.31-3.51-2.21-.37,2.21-2.83,16.86-4.83,28.77,12.11,3.4,7.86,2.2,46.57,13.06,9.9,2.78.06.02,16.67-.03,45.58-.08,2.2,5.83a10.28,10.28,0,0,0,4.21,14.84l1.71.81,20.83,55.12a24.938,24.938,0,0,0,4.47,13.93c.35.51.73,1.01,1.13,1.5l.46.55,8.01,15.67,4.77-1.1,20.3-4.65.1-.2c.01-.03.27-.58.65-1.54v-.03C533.735,761,537.255,750.146,533.805,739.866Z" transform="translate(5400.514 -3806)" fill="#2f2e41"/>
    <path id="Path_643" data-name="Path 643" d="M583.3,805.136a26.111,26.111,0,0,0-31.39-19.68l-14.07-6.35-3.94,2.77-16.34,11.46-1.35.31-4.38,1,6.05,26.37,65.62-15.05Z" transform="translate(5400.514 -3806)" fill="#2f2e41"/>
    <path id="Path_644" data-name="Path 644" d="M496.256,764.476l-5.95,48.24-.2,1.58-.88,7.19c-3.43-1.4-6.85-2.85-10.23-4.34q-4.74-2.085-9.41-4.3v-48.36Z" transform="translate(5400.514 -3806)" fill="#9e616a"/>
    <circle id="Ellipse_77" data-name="Ellipse 77" cx="36.073" cy="36.073" r="36.073" transform="translate(5731.582 -3445.302)" fill="#9e616a"/>
    <path id="Path_645" data-name="Path 645" d="M500.086,782.886c-1-1.37-2.04-2.8-2.1-4.17-.23-4.83-.47-9.61-.72-14.29-.18-3.27-.36-6.5-.54-9.66-.02-.4-.05-.8-.07-1.19-.31-5.23,1.24-10.75,2.73-16.1.49-1.75.98-3.52,1.42-5.29a38.429,38.429,0,0,0,1.37-12.13c-2.56-32.39-14-62.85-19.13-67.98-7.8-7.8-43.07-25.82-65.32-36.78-3.95-1.95-7.49-3.67-10.39-5.07-2.57-1.25-4.64-2.24-6.05-2.92-1.08-.51-1.78-.84-2.02-.96l-.12-.06-8.05.9-1.29.15-7.1.8-46.19,5.18-7.13.8-10.09,1.14-9.11,1.02-.34.03-.06.34c0,.01-.02.08-.04.21a95.32,95.32,0,0,0,0,29.84c1.18,6.71,3.41,13.53,7.37,19.27.54.78,1.1,1.53,1.7,2.25a.351.351,0,0,0,.08.1c.13.16.26.32.4.48v.01a32.92,32.92,0,0,0,17.37,10.57c1,.27,2.02.49,3.07.67,11.19,1.98,23.83,3.8,36.22,5.4,5.13.66,10.22,1.28,15.14,1.86,9.85,1.16,19.05,2.14,26.63,2.92,10.62,1.08,18.08,1.75,19.74,1.89l18.55,86.54a12.683,12.683,0,0,0,2.14,15.61l1.52,1.47,1.76,8.24,5.8,7.76.73.98h25.59l.14-.17c.09-.12,9.09-11.68,8.48-25.45C502.116,785.676,501.126,784.326,500.086,782.886Z" transform="translate(5400.514 -3806)" fill="#2f2e41"/>
    <path id="Path_646" data-name="Path 646" d="M499.387,492.851a13.742,13.742,0,0,0-17.31,12.016L452.1,514.235l1.25,19.6L495.5,520.014a13.816,13.816,0,0,0,3.891-27.163Z" transform="translate(5400.514 -3806)" fill="#9e616a"/>
    <path id="Path_647" data-name="Path 647" d="M479.831,525.29l-22.4,8.478-.573,1.111a11.3,11.3,0,0,1-15.224,4.868h0L391.283,558.8s-22.486-22.5-38.494-42.583l5.456-33.559a64.289,64.289,0,0,1,7.923-22.088c32.831,7.2,51.677,53.095,51.677,53.095l59.17-11.29Z" transform="translate(5400.514 -3806)" fill="#0362fc"/>
    <path id="Path_648" data-name="Path 648" d="M362.015,430.916c-9.031,2.439-18.987-.8-26.035-6.955s-11.456-14.867-14-23.87c-1.86-6.594-2.743-13.913.193-20.1s10.837-10.366,16.933-7.24c-3.76-4.381-1.882-11.628,2.51-15.376s10.423-4.823,16.167-5.41c8.336-.852,16.947-.948,24.879,1.753s15.14,8.6,17.622,16.608a12.64,12.64,0,0,0,15.077-3.4,11.452,11.452,0,0,1-6.31,12.417l12.154-3.94c2.09,4.424-1.572,9.9-6.256,11.317s-9.739-.132-14.184-2.179-8.752-4.635-13.579-5.433-10.5.753-12.731,5.107c-1.17,2.28-1.231,4.951-1.91,7.422s-2.4,5.033-4.954,5.236c-1.614.128-3.195-.732-4.8-.556a5.177,5.177,0,0,0-4.054,3.961,15.2,15.2,0,0,0-.014,5.98l3.087,23.6Z" transform="translate(5400.514 -3806)" fill="#2f2e41"/>
    <path id="Path_649" data-name="Path 649" d="M407.336,610.226l-1.91-2.87-13.94-20.91-.28-.41,4.31-22.36,1.34-6.98,2.93-15.19-.85-34.77-.61-24.6-.09-3.86-3.09-9.42a33.929,33.929,0,0,0-18-20.11l-20.8-9.52a10.141,10.141,0,0,0-13.431,5.028q-.14.307-.259.622c-2.85.39-15.22,2.47-25.71,10.61a39.058,39.058,0,0,0-14.48,22.62c-.02.07-.03.14-.05.21-1.39,6.21-2.43,16.01-3.1,29.29q-.675,13.17-.85,30.86a448.631,448.631,0,0,0,3.31,58.82c.23,1.86.47,3.71.72,5.57.21,1.56,1.71,3.05,3.16,4.48,1.33,1.31,2.7,2.67,2.89,3.9.17,1.08-.52,2.21-1.34,3.39-.1.15-.21.3-.31.45-1.02,1.45-2.07,2.96-1.8,4.55.63,3.58,1,7.22,1.35,10.74a113.67,113.67,0,0,0,2.1,14.42c.35,1.46.75,2.93,1.2,4.4,1.05,3.45,2.32,6.89,3.56,10.25,1.07,2.92,2.18,5.92,3.12,8.88.18.55.35,1.09.51,1.63l.08.28.29.05h.02a11.059,11.059,0,0,1,1.4-1.96.406.406,0,0,1,.09-.1q.21-.255.48-.54c2.19-2.39,6.95-6.68,17.37-13.91,2.33-1.61,4.94-3.36,7.86-5.28,10.71-7.01,25.67-16.14,46.57-27.93q7.86-4.44,16.87-9.39Z" transform="translate(5400.514 -3806)" fill="#0362fc"/>
    <path id="Path_650" data-name="Path 650" d="M519.505,830.206a26.058,26.058,0,0,0-18.53-7.67l-10.87-8.24-1.43-1.09-9.68,3.94c3.38,1.49,6.8,2.94,10.23,4.34q16.1,6.57,32.87,11.74A26.32,26.32,0,0,0,519.505,830.206Z" transform="translate(5400.514 -3806)" fill="#2f2e41"/>
    <path id="Path_651" data-name="Path 651" d="M602.45,750.808,588.836,744.3l18.7-56.9L627.63,697Z" transform="translate(5559 -3757)" fill="#ffb6b6"/>
    <path id="Path_652" data-name="Path 652" d="M852.206,790.636q-5.94,3.705-12.03,7.2v.03l-.06.01-.02.01-1.54.38-2.21-5.84-5.1-13.47-13.9-36.7,21.61-5.33,1.22,4.95,9.14,37.07,2.62,10.6Z" transform="translate(5400.514 -3806)" fill="#ffb6b6"/>
    <path id="Path_653" data-name="Path 653" d="M797.091,552.475a14.192,14.192,0,0,0,19.226,4.823,13.6,13.6,0,0,0,1.824-1.322l43.041,24.7-1.869-25.355-40.586-19.568a14.14,14.14,0,0,0-17.152-2.234,13.607,13.607,0,0,0-4.661,18.67Q797,552.333,797.091,552.475Z" transform="translate(5400.514 -3806)" fill="#ffb6b6"/>
    <path id="Path_654" data-name="Path 654" d="M842.678,571.375l7.608,4.637,34.169,20.836a20.147,20.147,0,0,0,27.766-6.393l.011-.018a19.713,19.713,0,0,0,2.513-13.916l-15.187-75.873a21.053,21.053,0,0,0-27.637-15.976,20.045,20.045,0,0,0-12.647,24.351l15.88,53.846-24.342-11.349Z" transform="translate(5400.514 -3806)" fill="#0362fc"/>
    <path id="Path_655" data-name="Path 655" d="M982.786,646.186c-.01-.03-.03-.14-.06-.31l-.03-.11q-.1-.54-.24-1.2a269.781,269.781,0,0,0-7.85-29.97,92.057,92.057,0,0,0-7.47-17.34c-.1-.18-.21-.36-.32-.54l-.37-.6-3.11,1.14-.12.04-47.28,17.33-13.67,5.01-.43.16-2.33,9.5-32.69-4.23-26.64-3.45-7.65-.99a25.214,25.214,0,0,0-18.79,5.14,26.211,26.211,0,0,0-9.97,17.64c-.1.76-.16,1.53-.19,2.29l-2.31,86.17v.11l1.07,2.14,22.35,44.84h15.49l9.14-.01h7.43l-15.45-39.09.35-.53a17.189,17.189,0,0,0,1.77-15.23l1.74-5.04c3.61-10.41,1.9-15.41-.26-21.73a53.69,53.69,0,0,1-3.38-16.03l-.36-7.13c9.07,1.59,17.52,3.36,25.66,5.14q4.08.885,8.08,1.79c7.59,1.69,14.92,3.32,22.1,4.68,14.54,2.77,28.47,4.46,42.78,3.41.28-.02.56-.04.84-.07,3.48-.28,6.98-.73,10.52-1.36,1.99-.36,3.99-.77,6.01-1.25l1.69-.42a19.44,19.44,0,0,0,4.46-1.79,29.189,29.189,0,0,0,5.55-4.02c.01-.01.02-.01.02-.02q4.14-5.88,8.07-11.94c1.41-2.17,2.81-4.36,4.18-6.56C983.115,656.266,983.875,650.726,982.786,646.186Z" transform="translate(5400.514 -3806)" fill="#2f2e41"/>
    <path id="Path_656" data-name="Path 656" d="M983.115,630c-.15-.64-.34-1.29-.54-1.92a136.816,136.816,0,0,0-5.54-14.02c-2.36-5.2-5.19-10.77-8.56-16.8q-2.445-4.38-5.26-9.11-1.41-2.37-2.93-4.83a2.525,2.525,0,0,0-.13-.22l-.29-.48-46.78,6.26-17.42,2.33-1.04,8.68-.25,2.15c-.01,0-.01,0,0,.01l-.7,5.86v.01l-.93,7.74-.08-.01-25.85-3.35-26.64-3.45L825.866,607a25.215,25.215,0,0,0-18.79,5.14,26.211,26.211,0,0,0-9.97,17.64c-.09.7-.15,1.42-.18,2.13l-13.5,31.99a206.4,206.4,0,0,0-15.26,60.04l-9.9,31.65,1.41.13,20.98,1.95,5.54.52,12.2-17.81c1.39-2.03,2.71-4.12,3.94-6.26a95.074,95.074,0,0,0,5.39-10.84l26.39-62.8q3.06.525,6.06,1,13.875,2.25,26.64,3.67c27.67,3.09,51.63,3.33,72.96.71q8.985-1.095,17.37-2.88,3.075-.645,6.07-1.39c.47-.11.93-.22,1.39-.34a25.519,25.519,0,0,0,17.85-16.68,26.038,26.038,0,0,0,.66-14.57Z" transform="translate(5400.514 -3806)" fill="#2f2e41"/>
    <ellipse id="Ellipse_78" data-name="Ellipse 78" cx="32.358" cy="33.08" rx="32.358" ry="33.08" transform="translate(6251.795 -3431.032)" fill="#ffb6b6"/>
    <path id="Path_657" data-name="Path 657" d="M960.476,584.426c-.05-.37-.11-.74-.19-1.11-.77-4.06-2.77-8.04-4.7-11.9-1.84-3.68-3.59-7.16-4.31-10.62-.71-3.41-.29-6.83.12-10.13.44-3.58.9-7.28-.13-10.87a266.743,266.743,0,0,0-21.4-52.86,40.188,40.188,0,0,0-33.35-28.06,9.472,9.472,0,0,0,1.07-5.46,9.26,9.26,0,0,0-3.41-6.27,8.927,8.927,0,0,0-6.59-1.92l-15.04,1.69a9.22,9.22,0,0,0-8.01,10.21,9.964,9.964,0,0,0,.5,2.18c-13.96,17.78-21.13,33.98-21.79,49.3v.01a52.216,52.216,0,0,0,.03,5.31,52.909,52.909,0,0,0,3.68,16.67,71.1,71.1,0,0,0,9.96,17.13q1.26,1.59,2.61,3.12,1.26,1.5,2.82,3.15l2.63,4.12,2.45,3.85,13.1,30.23,6.67-.22.93,6.65.22,1.55,4.32,15.47.32,1.16L898.9,614l35.26-16.74,26.36-12.52Z" transform="translate(5400.514 -3806)" fill="#0362fc"/>
    <path id="Path_658" data-name="Path 658" d="M847.351,530.436a70.781,70.781,0,0,0,12.5,20.128c.9,1.078,1.855,2.136,2.853,3.2l5.119,8.032c18.869-14.143,34.157-69.832,34.157-69.832l-21.29-4.141Z" transform="translate(5400.514 -3806)" opacity="0.2" style="isolation: isolate"/>
    <path id="Path_659" data-name="Path 659" d="M834.462,444.217a14.225,14.225,0,0,1-4.8,19.25,13.653,13.653,0,0,1-2.025.993l1.507,49.6L807.66,500.542l1.862-45.031a14.186,14.186,0,0,1,6.11-16.2,13.575,13.575,0,0,1,18.642,4.589Q834.37,444.055,834.462,444.217Z" transform="translate(5400.514 -3806)" fill="#ffb6b6"/>
    <path id="Path_660" data-name="Path 660" d="M831.028,495.341,807.406,498.7l1.016,48.918a20.468,20.468,0,0,0,10.006,17.249h0a19.611,19.611,0,0,0,23.426-2.66l55.77-53.643a21.145,21.145,0,0,0,1.558-29.036h0a20.054,20.054,0,0,0-28.261-2.377q-.238.2-.47.41a20.556,20.556,0,0,0-1.57,1.564l-36.825,42.364Z" transform="translate(5400.514 -3806)" fill="#0362fc"/>
    <path id="Path_661" data-name="Path 661" d="M852.805,789.386l-.87.16-11.76,2.17-3.83.71-6.03,1.11,2.14,8.63c2.57-1.39,5.11-2.82,7.64-4.28l.02-.01.06-.01v-.03q6.09-3.48,12.03-7.2c.28-.17.56-.34.84-.53Z" transform="translate(5400.514 -3806)" fill="#2f2e41"/>
    <path id="Path_662" data-name="Path 662" d="M765.286,790.516l-14.73-7.06-2.31-1.11-3.69,9.06-25.76,5.67a6.112,6.112,0,0,0-1,11.63l25.17,10.27,7.99-7.19-1.96,9.65,9.48,3.87,10.39-33.07Z" transform="translate(5400.514 -3806)" fill="#2f2e41"/>
    <path id="Path_663" data-name="Path 663" d="M970.228,393.7c-5.5-6.414-8.115-14.924-12.512-22.208s-12.049-13.8-20.132-12.108c-5.572,1.169-9.879,6.086-12.059,11.568s-2.588,11.528-2.97,17.45c.135-12.171-7.884-23.97-18.93-27.854s-24.264.448-31.205,10.226a16.866,16.866,0,0,0-22.4-.47c-6.208,5.549-7.582,16.11-3.016,23.187s14.454,9.714,21.71,5.789l2.565,2.36c-1.444,5.05,1.356,11.016,6.063,12.917,3.817,1.542,9.205,1.285,10.634,5.291,1,2.8-.867,5.786-2.852,7.937s-4.34,4.372-4.578,7.348c-.36,4.49,4.28,7.636,8.5,8.583,10.171,2.284,21.457-2.426,27.32-11.4q.169-.26.369-.52a39.278,39.278,0,0,0,7.9-30.033c-.33-2.075,0-3.618,1.433-4.109,6.183-2.124,23.5,2.334,28.747,6.362s9.441,9.359,14.49,13.648,11.485,7.6,17.9,6.428c5.135-.935,9.5-4.663,12.442-9.16s4.629-9.738,6.144-14.947C994.426,406.542,978.886,403.8,970.228,393.7Z" transform="translate(5400.514 -3806)" fill="#2f2e41"/>
    <path id="Path_665" data-name="Path 665" d="M599.682,590.882v257.31c-.15.24-.3.47-.45.71q-5.64-.57-11.23-1.31v-244.1c0-5.36-1.91-9.71-4.26-9.72H407.032c-2.35.01-4.26,4.36-4.26,9.72v169.46q-5.925-4.365-11.68-8.95V590.882c0-1.48.06-2.97.17-4.44.95-12.48,5.7-21.6,11.26-21.62h185.73a5.139,5.139,0,0,1,1.95.39c4.65,1.86,8.33,10.02,9.26,20.57C599.612,587.462,599.682,589.172,599.682,590.882Z" transform="translate(5400.514 -3806)" fill="#e4e4e4"/>
    <path id="Path_666" data-name="Path 666" d="M381.974,456.372l11.581,50.955,7.4,8.106h5.339l-22-92.646L383.2,438.526v.011Z" transform="translate(5559 -3757)" fill="#3f3d56"/>
    <path id="Path_667" data-name="Path 667" d="M579.026,567.036a.981.981,0,0,0-.13-.22,2.011,2.011,0,0,0-.45-.64l-1.35-1.35-7.1-7.11a2.807,2.807,0,0,0-1.95-.8h-.03l-5.01.03-4.31.03-6.02.04-41,.26-26.95.17a2.785,2.785,0,0,0-2.75,2.77,2.9,2.9,0,0,0,.26,1.17l.52,1.11,1.09,2.33,1.42,3.05.7,1.5a2.775,2.775,0,0,0,2.51,1.6h88.01a2.824,2.824,0,0,0,2.54-3.94Z" transform="translate(5400.514 -3806)" fill="#3f3d56"/>
    <path id="Path_668" data-name="Path 668" d="M485.267,567.874l.695,1.505a2.8,2.8,0,0,0,2.513,1.6h88.014a2.819,2.819,0,0,0,2.536-3.937.839.839,0,0,0-.127-.22Z" transform="translate(5400.514 -3806)" opacity="0.17" style="isolation: isolate"/>
    <path id="Path_669" data-name="Path 669" d="M383.2,438.526v.011l18.842,76.9h4.25l-22-92.646Z" transform="translate(5559 -3757)" opacity="0.17" style="isolation: isolate"/>
    <path id="Path_670" data-name="Path 670" d="M571.245,272.336l-2.76-.37a2.893,2.893,0,0,0-2.13.57l-1.65,1.27-18.37,22.98a2.892,2.892,0,0,0-1.1,1.92l-1.03,7.82-25.64,195.09a2.925,2.925,0,0,0,.51,2.05l12.08,33.3.36.52.78,1.11a2.938,2.938,0,0,0,1.66,1.14l1.75.44a2.9,2.9,0,0,0,2.34-.42,2.852,2.852,0,0,0,1.24-2.02l3.13-23.78v-.01l2-15.26,1.69-12.87v-.01l27.64-210.23a2.887,2.887,0,0,0-2.486-3.238Z" transform="translate(5400.514 -3806)" fill="#3f3d56"/>
    <path id="Path_671" data-name="Path 671" d="M564.7,273.807,531.154,536.971l.364.515.777,1.107a2.929,2.929,0,0,0,1.66,1.141l1.753.441a2.906,2.906,0,0,0,3.579-2.438l34.455-262.157a2.9,2.9,0,0,0-2.493-3.248l-2.767-.364a2.855,2.855,0,0,0-2.131.573Z" transform="translate(5400.514 -3806)" opacity="0.17" style="isolation: isolate"/>
    <path id="Path_672" data-name="Path 672" d="M405.226,232.333l-17.8,25.411-21.16,161L377.735,441.5Z" transform="translate(5559 -3757)" fill="#0362fc"/>
    <path id="Path_673" data-name="Path 673" d="M578.645,456.372l-11.581,50.955-7.4,8.106h-5.339l22-92.646,1.088,15.739v.011Z" transform="translate(5559 -3757)" fill="#3f3d56"/>
    <path id="Path_674" data-name="Path 674" d="M792.865,557.446l-67.94-.43-6.03-.04-4.3-.03-5.01-.03h-.04a2.764,2.764,0,0,0-1.94.8l-8.46,8.46a2.185,2.185,0,0,0-.45.64.983.983,0,0,0-.13.22,2.824,2.824,0,0,0,2.54,3.94h88.01a2.8,2.8,0,0,0,2.52-1.6l.69-1.5,1.42-3.05,1.61-3.44a2.741,2.741,0,0,0,.26-1.17A2.785,2.785,0,0,0,792.865,557.446Z" transform="translate(5400.514 -3806)" fill="#3f3d56"/>
    <path id="Path_675" data-name="Path 675" d="M792.325,567.874l-.695,1.505a2.8,2.8,0,0,1-2.513,1.6H701.1a2.819,2.819,0,0,1-2.536-3.937.841.841,0,0,1,.128-.22Z" transform="translate(5400.514 -3806)" opacity="0.17" style="isolation: isolate"/>
    <path id="Path_676" data-name="Path 676" d="M577.417,438.526v.011l-18.842,76.9h-4.25l22-92.646Z" transform="translate(5559 -3757)" opacity="0.17" style="isolation: isolate"/>
    <path id="Path_677" data-name="Path 677" d="M759.026,501.616l-26.67-202.91a2.892,2.892,0,0,0-1.1-1.92l-18.36-22.98-1.65-1.27a2.929,2.929,0,0,0-2.14-.57l-2.76.37a2.894,2.894,0,0,0-2.5,3.24h0l27.64,210.24v.01l1.69,12.86,2.01,15.27v.02l3.12,23.76a2.833,2.833,0,0,0,1.25,2.02,2.873,2.873,0,0,0,2.33.42l1.75-.44a2.938,2.938,0,0,0,1.66-1.14l.78-1.11.36-.52,12.08-33.3a2.876,2.876,0,0,0,.51-2.05Z" transform="translate(5400.514 -3806)" fill="#3f3d56"/>
    <path id="Path_678" data-name="Path 678" d="M712.891,273.807l33.548,263.164-.364.515-.777,1.107a2.929,2.929,0,0,1-1.66,1.141l-1.753.441a2.906,2.906,0,0,1-3.579-2.438L703.85,275.579a2.9,2.9,0,0,1,2.493-3.248l2.767-.364a2.855,2.855,0,0,1,2.131.573Z" transform="translate(5400.514 -3806)" opacity="0.17" style="isolation: isolate"/>
    <path id="Path_679" data-name="Path 679" d="M555.393,232.333l17.8,25.411,21.16,161L582.884,441.5Z" transform="translate(5559 -3757)" fill="#0362fc"/>
    <path id="Path_680" data-name="Path 680" d="M382.986,605.936a8.207,8.207,0,0,1-.13,1.5c-.04.24-.09.47-.15.7a8.693,8.693,0,0,1-8.41,6.49h-37.63v89.75a8.648,8.648,0,0,1-1.77,5.25c-.86-1.01-1.71-2.02-2.55-3.04q-6.75-8.07-13.05-16.5v-75.46H302.5a8.685,8.685,0,0,1-.72-17.34q.36-.03.72-.03h71.8a8.687,8.687,0,0,1,8.69,8.68Z" transform="translate(5400.514 -3806)" fill="#3f3d56"/>
    <path id="Path_681" data-name="Path 681" d="M982.615,605.936a8.694,8.694,0,0,1-5.58,8.12,8.507,8.507,0,0,1-2.43.54c-.22.02-.45.03-.67.03h-16.79v81.46c-.25.33-.51.66-.77.99q-5.925,7.575-12.21,14.85a8.623,8.623,0,0,1-4.39-7.55v-89.75h-37.64a8.5,8.5,0,0,1-3.24-.63,8.659,8.659,0,0,1-5.22-6.08v-.01a8.585,8.585,0,0,1,.7-5.86c-.01-.01-.01-.01,0-.01a8.493,8.493,0,0,1,1.54-2.16,8.693,8.693,0,0,1,6.22-2.62h71.8a8.679,8.679,0,0,1,8.68,8.679Z" transform="translate(5400.514 -3806)" fill="#3f3d56"/>
    <path id="Path_682" data-name="Path 682" d="M982.041,438.6a27.215,27.215,0,0,0-27.215,27.215h0a27.219,27.219,0,0,0,22,26.71l0,44.512H994.2V438.6Z" transform="translate(5400.514 -3806)" fill="#3f3d56"/>
    <path id="Path_683" data-name="Path 683" d="M506.891,537.973a13.742,13.742,0,0,0-19.845,7.084l-31.379,1.224L451.44,560.9l44.609,2.284a13.816,13.816,0,0,0,10.842-25.207Z" transform="translate(5400.514 -3806)" fill="#9e616a"/>
    <path id="Path_684" data-name="Path 684" d="M481.116,564.756l-32.232-.4-4.08-.055-65.578-.826s-17.808-16.989-33.315-34.481l2.173-15.72A64.228,64.228,0,0,1,369.621,473.5c22.209,14.84,35.088,44.214,35.088,44.214l21.6,9.663h0a94.547,94.547,0,0,1,43.17,12.643l7.1,4.114Z" transform="translate(5400.514 -3806)" fill="#0362fc"/>
  </g>
</svg>
